<?xml version="1.0" standalone="no"?>
<!DOCTYPE svg PUBLIC "-//W3C//DTD SVG 20010904//EN"
 "http://www.w3.org/TR/2001/REC-SVG-20010904/DTD/svg10.dtd">
<svg version="1.0" xmlns="http://www.w3.org/2000/svg"
 width="1024.000000pt" height="1024.000000pt" viewBox="0 0 1024.000000 1024.000000"
 preserveAspectRatio="xMidYMid meet">

<g transform="translate(0.000000,1024.000000) scale(0.100000,-0.100000)"
fill="#000000" stroke="none">
<path d="M3750 5861 c-136 -19 -305 -103 -400 -200 -49 -50 -67 -80 -101 -168
-6 -15 -17 -23 -33 -23 -27 0 -56 -33 -56 -63 0 -10 11 -29 25 -43 l25 -25 0
-307 c0 -289 1 -309 20 -337 36 -55 39 -60 45 -88 3 -17 15 -31 31 -37 34 -13
300 -13 325 0 11 6 19 21 19 35 0 13 15 41 33 61 29 34 32 44 36 117 3 73 2
79 -15 75 -16 -3 -19 -14 -22 -73 -3 -61 -7 -74 -31 -100 -16 -16 -31 -42 -35
-58 l-7 -28 -141 3 c-123 3 -142 5 -149 21 -13 24 -26 47 -49 82 -19 29 -20
45 -18 335 l3 305 210 0 210 0 5 -50 c5 -46 6 -48 18 -28 6 12 12 31 12 43 0
12 11 35 25 52 32 38 32 62 -1 95 l-25 25 -203 -7 c-131 -5 -206 -4 -210 3 -9
14 49 124 81 154 58 54 191 135 258 157 72 24 221 39 269 27 14 -3 30 -16 37
-27 9 -18 7 -27 -11 -52 -19 -25 -22 -38 -17 -83 6 -62 12 -75 32 -68 8 4 15
28 19 67 3 34 8 81 12 105 7 47 -2 65 -45 86 -35 18 -115 25 -181 17z m-43
-435 c3 -3 3 -12 -1 -21 -5 -13 -36 -15 -253 -13 -213 3 -248 5 -248 18 0 10
15 17 45 22 50 7 449 2 457 -6z"/>
<path d="M3877 5783 c-14 -13 -6 -33 13 -33 11 0 20 4 20 9 0 13 -26 32 -33
24z"/>
<path d="M3970 5577 c-29 -15 -38 -42 -39 -124 -1 -35 -5 -63 -10 -63 -16 0
-61 41 -61 56 0 28 -45 -29 -119 -151 -40 -66 -97 -158 -127 -205 -67 -106
-72 -149 -22 -180 18 -11 46 -22 62 -26 37 -8 33 -13 161 205 55 94 101 167
103 162 6 -19 -59 -244 -103 -355 -25 -64 -45 -131 -45 -149 0 -43 26 -67 72
-67 49 0 81 35 117 130 76 196 123 428 125 612 1 106 1 108 -28 135 -24 24
-26 25 -17 6 18 -35 13 -234 -9 -362 -22 -125 -54 -259 -65 -269 -4 -4 -5 2
-2 13 57 193 89 592 51 629 -18 19 -13 19 -44 3z m38 -85 c3 -9 -2 -13 -14
-10 -9 1 -19 9 -22 16 -3 9 2 13 14 10 9 -1 19 -9 22 -16z m-95 -142 c21 0 30
-16 22 -40 -6 -19 -8 -19 -28 -5 -29 21 -37 19 -35 -7 1 -13 -21 -57 -48 -99
-27 -42 -75 -120 -107 -173 -32 -54 -65 -100 -73 -103 -16 -6 -40 11 -54 37
-10 18 -2 31 219 393 l23 37 33 -20 c18 -11 39 -20 48 -20z m-58 -591 c0 -7
-8 -15 -17 -17 -18 -3 -25 18 -11 32 10 10 28 1 28 -15z"/>
<path d="M6414 5564 c-47 -23 -66 -65 -67 -147 0 -92 13 -118 102 -197 78 -69
85 -82 83 -158 -1 -59 -14 -82 -46 -82 -39 0 -48 14 -47 79 l0 61 -51 0 -51 0
6 -74 c3 -46 12 -84 23 -101 48 -73 191 -71 240 3 22 33 30 144 15 200 -9 33
-31 61 -97 126 l-84 82 0 55 c0 74 19 96 68 78 20 -7 22 -15 22 -74 l0 -65 45
0 45 0 0 69 c0 38 -4 81 -10 95 -22 58 -126 85 -196 50z"/>
<path d="M7122 5560 c-57 -35 -62 -62 -62 -326 0 -272 4 -290 74 -324 51 -24
83 -25 135 -4 73 29 76 38 79 309 4 273 -2 305 -57 342 -45 30 -122 31 -169 3z
m102 -70 l26 -10 0 -238 c0 -172 -3 -241 -12 -250 -20 -20 -56 -14 -73 12 -14
21 -16 57 -13 246 3 206 4 223 22 236 23 17 19 16 50 4z"/>
<path d="M4300 5234 l0 -336 98 4 c157 6 186 39 180 206 -3 90 -4 95 -33 120
l-30 27 28 27 c26 26 27 31 27 123 0 97 0 97 -34 131 l-34 34 -101 0 -101 0 0
-336z m170 237 c12 -23 13 -140 2 -159 -5 -7 -25 -15 -45 -19 l-37 -6 0 102 0
101 35 0 c24 0 37 -6 45 -19z m1 -277 c14 -17 16 -181 2 -195 -4 -4 -25 -11
-45 -14 l-38 -7 0 116 0 116 34 0 c18 0 39 -7 47 -16z"/>
<path d="M4726 5553 c-3 -10 -28 -153 -56 -318 -28 -165 -53 -308 -56 -317 -5
-15 1 -18 40 -18 49 0 50 1 62 83 l6 47 53 0 c59 0 58 1 70 -82 l6 -48 50 0
c46 0 49 1 44 23 -3 12 -26 137 -51 277 -25 140 -50 281 -56 313 l-10 57 -48
0 c-38 0 -50 -4 -54 -17z m74 -279 c11 -76 20 -145 20 -152 0 -9 -12 -12 -40
-10 -22 2 -41 5 -42 8 -3 8 35 300 38 297 2 -2 13 -66 24 -143z"/>
<path d="M4995 5338 c-3 -128 -5 -278 -3 -333 l3 -100 48 -3 47 -3 0 145 c0
122 2 146 15 146 15 0 20 -16 68 -195 l24 -90 48 -3 c42 -3 47 -1 43 15 -3 10
-22 77 -43 150 l-38 132 31 35 c36 41 47 96 39 193 -9 114 -46 143 -183 143
l-92 0 -7 -232z m175 133 c5 -11 10 -52 10 -92 0 -82 -15 -109 -62 -109 l-28
0 0 110 0 110 35 0 c24 0 37 -6 45 -19z"/>
<path d="M5350 5236 l0 -336 85 0 c98 0 145 15 172 56 15 23 18 48 18 137 0
108 0 109 -30 135 l-30 27 28 28 c28 27 29 29 25 127 -3 93 -5 101 -31 127
-26 26 -33 28 -132 31 l-105 4 0 -336z m170 235 c5 -11 10 -49 10 -85 0 -56
-3 -67 -22 -80 -12 -9 -33 -16 -45 -16 -22 0 -23 3 -23 100 l0 100 35 0 c24 0
37 -6 45 -19z m-14 -261 c20 0 34 -50 34 -119 0 -80 -13 -102 -60 -104 l-35
-2 -3 104 c-3 123 0 136 31 127 12 -3 27 -6 33 -6z"/>
<path d="M5700 5235 l0 -335 120 0 120 0 0 45 0 45 -75 0 -76 0 3 108 3 107
58 3 57 3 0 39 0 40 -60 0 -60 0 0 100 0 100 75 0 75 0 0 40 0 40 -120 0 -120
0 0 -335z"/>
<path d="M6000 5236 l0 -336 45 0 45 0 0 146 c0 133 1 145 17 142 14 -2 27
-37 57 -146 l39 -142 44 0 c24 0 43 4 43 10 0 5 -18 73 -40 151 l-39 141 29
30 c36 35 44 74 38 184 -4 80 -7 87 -36 117 -32 31 -35 32 -137 35 l-105 4 0
-336z m171 237 c9 -10 14 -43 14 -95 0 -88 -12 -108 -67 -108 l-28 0 0 110 0
110 34 0 c19 0 39 -7 47 -17z"/>
<path d="M6702 5238 l3 -333 43 -3 42 -3 0 150 0 151 50 0 49 0 3 -147 3 -148
43 -3 42 -3 0 335 0 336 -45 0 -45 0 0 -140 0 -140 -50 0 -50 0 0 140 0 140
-45 0 -45 0 2 -332z"/>
<path d="M7426 5518 c-8 -69 -8 -266 1 -456 l6 -152 43 0 43 0 3 133 3 132 55
6 c69 7 84 14 107 47 15 23 18 45 16 144 -1 65 -7 127 -13 138 -23 44 -68 60
-166 60 l-91 0 -7 -52z m174 -43 c8 -10 13 -46 13 -100 0 -97 -9 -115 -59
-115 l-34 0 0 115 0 115 34 0 c18 0 39 -7 46 -15z"/>
<path d="M3873 5527 c-23 -10 -31 -41 -14 -51 4 -3 19 6 31 19 28 29 17 48
-17 32z"/>
<path d="M3328 5279 c-37 -30 -38 -32 -38 -100 0 -38 3 -69 7 -69 7 0 131 92
211 157 l53 43 -98 0 c-94 -1 -99 -2 -135 -31z"/>
<path d="M3612 5197 c-6 -7 -81 -67 -166 -132 l-155 -120 2 -72 c1 -40 5 -72
9 -70 17 5 217 163 218 171 0 5 27 53 60 107 57 92 71 129 51 129 -5 0 -13 -6
-19 -13z"/>
<path d="M3494 4795 c-145 -109 -148 -111 -140 -124 5 -7 40 -11 94 -11 l87 0
53 46 c50 44 52 47 52 99 0 50 -9 65 -39 65 -4 0 -52 -34 -107 -75z"/>
<path d="M4935 4730 c-3 -5 -1 -10 4 -10 6 0 11 5 11 10 0 6 -2 10 -4 10 -3 0
-8 -4 -11 -10z"/>
<path d="M6600 4662 l0 -79 47 1 c40 1 49 5 62 27 13 24 13 29 -3 54 -15 22
-24 26 -52 23 -32 -4 -34 -2 -34 24 0 15 -4 28 -10 28 -6 0 -10 -33 -10 -78z
m90 3 c7 -8 10 -25 6 -39 -12 -48 -76 -41 -76 8 0 42 45 62 70 31z"/>
<path d="M6950 4661 l0 -79 47 2 c42 1 49 4 57 28 7 19 6 35 -2 54 -11 22 -18
26 -47 22 -33 -4 -35 -2 -35 24 0 15 -4 28 -10 28 -6 0 -10 -33 -10 -79z m84
0 c32 -36 -3 -83 -45 -61 -21 12 -25 50 -7 68 17 17 32 15 52 -7z"/>
<path d="M7430 4730 c0 -5 5 -10 10 -10 6 0 10 5 10 10 0 6 -4 10 -10 10 -5 0
-10 -4 -10 -10z"/>
<path d="M4322 4723 c-21 -8 -43 -61 -36 -88 13 -53 86 -73 124 -35 24 24 26
77 4 108 -15 21 -58 29 -92 15z m63 -15 c43 -19 46 -86 5 -108 -28 -15 -70 -1
-82 26 -18 40 1 77 49 93 1 1 14 -4 28 -11z"/>
<path d="M5363 4723 c9 -2 25 -2 35 0 9 3 1 5 -18 5 -19 0 -27 -2 -17 -5z"/>
<path d="M6013 4689 c-32 -12 -29 -17 8 -15 43 2 47 -19 7 -30 -26 -8 -33 -15
-33 -34 0 -23 4 -25 43 -25 l43 -1 -3 50 c-3 54 -23 71 -65 55z m52 -58 c7
-12 -22 -41 -40 -41 -23 0 -29 22 -10 37 22 15 41 17 50 4z"/>
<path d="M4460 4634 c0 -30 5 -54 10 -54 6 0 10 19 10 41 0 28 6 46 17 54 15
11 14 13 -10 13 -26 0 -27 -3 -27 -54z"/>
<path d="M4542 4678 c-17 -17 -15 -73 3 -88 9 -7 27 -10 45 -6 32 6 39 -4 15
-24 -9 -7 -26 -9 -47 -5 -39 8 -28 -10 12 -20 41 -10 57 12 63 85 l6 66 -43 2
c-23 1 -48 -4 -54 -10z m59 -8 c41 -22 8 -91 -35 -74 -26 10 -32 55 -11 71 22
16 21 16 46 3z"/>
<path d="M4675 4680 c-4 -7 2 -9 17 -5 16 4 29 1 37 -8 9 -12 6 -16 -23 -21
-35 -7 -50 -25 -40 -50 8 -20 23 -24 62 -19 29 5 32 8 32 40 0 50 -16 73 -50
73 -16 0 -32 -5 -35 -10z m65 -54 c0 -18 -15 -36 -30 -36 -22 0 -34 15 -25 30
6 9 55 15 55 6z"/>
<path d="M4800 4656 c0 -17 -3 -41 -6 -53 -4 -14 -2 -23 5 -23 6 0 11 17 11
39 0 78 62 81 68 2 4 -54 22 -53 22 2 0 58 -9 68 -58 66 -40 -3 -42 -5 -42
-33z"/>
<path d="M4937 4683 c-11 -10 -8 -103 3 -103 6 0 10 25 10 55 0 56 -1 60 -13
48z"/>
<path d="M5008 4683 c17 -2 32 -7 32 -9 0 -3 -11 -20 -24 -37 -41 -57 -41 -57
11 -55 44 1 45 2 10 5 l-38 4 35 50 36 49 -48 -2 c-36 -1 -39 -2 -14 -5z"/>
<path d="M5125 4682 c38 -9 48 -42 12 -42 -28 0 -52 -23 -44 -44 3 -8 24 -15
47 -18 l41 -4 -3 56 -3 55 -40 2 c-35 1 -36 1 -10 -5z m33 -69 c-4 -22 -48
-31 -48 -10 0 19 10 27 32 27 13 0 18 -6 16 -17z"/>
<path d="M5224 4665 c-26 -40 12 -104 55 -90 30 9 26 21 -6 20 -21 0 -30 6
-37 28 -13 36 9 57 52 50 21 -4 24 -2 12 6 -26 18 -59 12 -76 -14z"/>
<path d="M5345 4681 c-4 -7 4 -9 23 -5 21 4 31 2 35 -10 7 -17 3 -20 -45 -30
-53 -12 -26 -57 31 -53 32 2 32 2 29 52 -3 48 -4 50 -35 53 -17 2 -34 -2 -38
-7z m63 -63 c-7 -21 -36 -34 -49 -21 -6 6 -8 16 -5 22 10 15 59 14 54 -1z"/>
<path d="M5467 4672 c-35 -38 -8 -92 45 -92 31 0 51 21 51 55 0 14 -6 32 -13
40 -17 21 -63 19 -83 -3z m74 -13 c8 -16 8 -28 0 -45 -18 -41 -71 -25 -71 21
0 44 50 61 71 24z"/>
<path d="M5650 4613 c0 -42 4 -73 10 -73 6 0 10 10 10 23 0 20 4 23 28 19 36
-5 62 19 62 57 0 38 -20 52 -69 49 l-41 -3 0 -72z m78 55 c32 -32 -3 -88 -41
-67 -30 17 -16 79 18 79 6 0 16 -5 23 -12z"/>
<path d="M5790 4682 c0 -5 10 -7 23 -5 14 3 29 -2 36 -11 12 -14 10 -16 -11
-16 -33 0 -61 -22 -56 -46 3 -15 12 -19 46 -20 l43 -1 -3 51 -3 51 -37 3 c-21
2 -38 -1 -38 -6z m60 -67 c0 -9 -7 -18 -16 -22 -18 -7 -39 11 -30 26 11 17 46
13 46 -4z"/>
<path d="M5914 4681 c-9 -9 -4 -101 6 -101 6 0 10 18 10 39 0 30 6 44 22 56
l23 15 -28 -2 c-16 -1 -30 -4 -33 -7z"/>
<path d="M6174 4675 c-9 -23 3 -43 28 -47 36 -5 29 -34 -7 -30 -22 3 -27 0
-19 -8 6 -6 24 -10 40 -8 21 2 30 9 32 26 3 18 -3 25 -27 33 -42 15 -42 44 -1
35 19 -3 29 -2 25 4 -10 16 -65 12 -71 -5z"/>
<path d="M6281 4649 c-1 -55 12 -69 62 -67 l37 1 0 54 c0 63 -18 72 -22 11 -3
-38 -6 -43 -30 -46 -28 -3 -31 1 -41 68 -3 14 -5 4 -6 -21z"/>
<path d="M6425 4681 c-3 -6 7 -9 22 -8 19 1 28 -3 31 -15 3 -13 -3 -18 -21
-18 -14 0 -30 -7 -37 -15 -19 -23 5 -45 49 -43 34 1 36 3 38 36 3 50 -12 72
-47 72 -16 0 -31 -4 -35 -9z m58 -66 c-1 -5 -8 -14 -17 -20 -18 -11 -42 7 -31
25 8 13 51 9 48 -5z"/>
<path d="M6744 4679 c-4 -8 1 -9 15 -4 13 4 28 1 36 -5 22 -18 18 -27 -11 -27
-14 0 -33 -8 -42 -16 -24 -25 1 -47 49 -45 39 1 39 2 39 43 0 22 -5 46 -12 53
-15 15 -65 16 -74 1z m64 -66 c-4 -20 -35 -30 -50 -15 -15 15 0 32 28 32 19 0
25 -5 22 -17z"/>
<path d="M6870 4633 c0 -29 5 -53 10 -53 6 0 10 18 10 39 0 30 6 44 22 55 21
15 21 15 -10 13 -32 -2 -32 -3 -32 -54z"/>
<path d="M7093 4664 c-15 -24 -15 -29 -2 -53 16 -29 64 -41 83 -21 8 9 6 11
-11 6 -24 -7 -63 8 -63 24 0 6 20 10 45 10 37 0 45 3 45 18 0 47 -69 59 -97
16z m75 -6 c3 -15 -4 -18 -32 -18 -38 0 -44 8 -24 28 17 17 52 11 56 -10z"/>
<path d="M7225 4679 c-5 -8 -1 -9 14 -4 23 7 55 -11 45 -26 -3 -5 -16 -9 -28
-9 -29 0 -49 -22 -40 -44 5 -12 17 -16 46 -14 l39 2 -3 50 c-3 49 -4 51 -35
54 -17 2 -34 -2 -38 -9z m65 -58 c0 -15 -29 -33 -45 -27 -28 10 -17 36 15 36
17 0 30 -4 30 -9z"/>
<path d="M7351 4630 l2 -55 6 42 c8 46 7 45 36 61 18 10 16 11 -12 9 l-33 -2
1 -55z"/>
<path d="M7430 4635 c0 -30 5 -55 10 -55 6 0 10 25 10 55 0 30 -4 55 -10 55
-5 0 -10 -25 -10 -55z"/>
<path d="M7515 4681 c17 -3 30 -13 30 -21 0 -9 -13 -17 -30 -20 -24 -4 -30
-10 -30 -30 0 -22 5 -25 43 -28 l42 -3 0 43 c0 52 -13 68 -54 67 l-31 -1 30
-7z m33 -68 c-2 -10 -12 -18 -23 -18 -11 0 -21 8 -23 18 -3 13 3 17 23 17 20
0 26 -4 23 -17z"/>
<path d="M5261 4544 c-7 -8 -10 -18 -7 -21 7 -7 36 16 36 28 0 13 -13 10 -29
-7z"/>
</g>
</svg>
